<?xml version="1.0" encoding="UTF-8"?>
<svg id="Layer_1" xmlns="http://www.w3.org/2000/svg" version="1.1" viewBox="0 0 608.96 300">
  <!-- Generator: Adobe Illustrator 29.5.0, SVG Export Plug-In . SVG Version: 2.1.0 Build 137)  -->
  <path d="M167.22,82.19c0-9.22,5.37-13.83,20.74-13.83s20.75,4.8,20.75,13.83c0,10.95-5.19,15.37-20.75,15.37s-20.74-4.42-20.74-15.37ZM171.06,169.02c0-20.17-.19-40.53-.77-63.78,5.19.38,11.33.77,17.67.77s12.3-.38,17.48-.77c-.58,23.24-.77,43.8-.77,63.78s.19,40.53.77,60.51h-35.15c.58-20.17.77-40.34.77-60.51Z"/>
  <path d="M215.04,105.82h36.12c11.14,43.41,20.17,76.07,25.16,106.62h2.69c4.8-30.54,14.22-63.01,25.16-106.62h36.12c-14.6,49.37-23.82,82.41-34.77,123.71h-55.51c-10.95-41.3-20.37-74.34-34.97-123.71Z"/>
  <path d="M341.23,167.48c0-42.26,22.47-64.16,60.71-64.16s58.4,20.17,58.97,60.51l-85.1,6.53c.38,25.36,8.64,37.08,27.85,37.08,7.88,0,14.02-1.73,20.17-4.42,1.73-8.26,2.5-14.98,2.88-22.48h33.43c-3.65,35.15-24.59,51.1-58.2,51.1-38.42,0-60.71-21.9-60.71-64.16ZM400.02,127.52c-7.88,0-14.41,1.54-21.52,6.15-1.15,6.72-1.92,14.02-2.31,21.9l50.52-4.03c-2.88-16.33-11.33-24.01-26.7-24.01Z"/>
  <path d="M474.35,166.71c0-21.13,0-40.73-.58-60.9h35.34l-3.27,30.16h2.11c8.84-23.82,19.78-32.46,37.46-32.46,26.13,0,39.38,17.48,38.61,59.74l-35.15,3.84c.38-26.7-6.34-32.47-19.21-32.47-8.64,0-16.33,3.84-21.32,17.67,0,33.23,0,56.86.76,77.22h-35.54c.77-18.63.77-41.49.77-62.82Z"/>
  <g>
    <path d="M152.06,82.96h-35.15l.37,56.18s0,0,0,0c-7.16-2.71-12.66-7.63-15.16-14.67.98,10.17-1.04,19.7-5.44,28.04-.73,1.39-1.52,2.74-2.38,4.06,6.54,4.92,14.37,8.42,22.97,10.29,0,0,0,0,.01,0l-.36,62.68h35.15c-.58-24.4-.96-50.14-.96-73.19s.38-48.79.96-73.38Z"/>
    <path d="M99.76,124.46c-1.64,10.12-6.08,18.85-12.51,25.79-7.19,7.78-16.88,13.33-27.97,16.1.03,17.47.22,45.41.76,63.17H24.89c.58-16.33.58-47.25.58-73.19s0-56.85-.58-73.38h35.16c-.54,18.18-.75,38.39-.76,55.31,6.14-2.83,10.84-7.45,13.09-13.81h27.39Z"/>
  </g>
</svg>